<svg width="538" height="82" viewBox="0 0 538 82" fill="none" xmlns="http://www.w3.org/2000/svg">
<path d="M0.421984 80V3.87822H10.8955L55.0569 60.9965H52.2496V3.87822H65.2065V80H54.733L10.6795 22.8817H13.3789V80H0.421984ZM100.501 81.0797C93.807 81.0797 88.8042 79.2442 85.493 75.5731C82.1818 71.9019 80.5261 66.2873 80.5261 58.7291V25.4731H94.0229V58.6211C94.0229 62.6522 94.8507 65.6394 96.5063 67.583C98.1619 69.4545 100.681 70.3903 104.065 70.3903C107.88 70.3903 110.975 69.0946 113.35 66.5032C115.798 63.9119 117.021 60.4927 117.021 56.2457V25.4731H130.518V80H117.345V68.8787H118.857C117.273 72.7657 114.862 75.789 111.623 77.9485C108.455 80.036 104.748 81.0797 100.501 81.0797ZM168.493 81.0797C162.015 81.0797 157.12 79.3881 153.809 76.005C150.497 72.6218 148.842 67.547 148.842 60.7806V35.6226H138.368V25.4731H148.842V11.5444L162.339 8.08921V25.4731H176.915V35.6226H162.339V59.9168C162.339 63.6599 163.058 66.2873 164.498 67.7989C165.938 69.3106 167.917 70.0664 170.437 70.0664C171.804 70.0664 172.956 69.9584 173.892 69.7425C174.899 69.5265 175.871 69.2386 176.807 68.8787V79.5681C175.583 80.072 174.216 80.4319 172.704 80.6478C171.264 80.9358 169.861 81.0797 168.493 81.0797ZM185.975 80V39.4017C185.975 37.0983 185.903 34.7588 185.759 32.3834C185.687 30.008 185.507 27.7045 185.219 25.4731H198.284L199.795 40.3735H197.636C198.356 36.7743 199.543 33.7871 201.199 31.4116C202.927 29.0362 205.014 27.2726 207.462 26.1209C209.909 24.9692 212.572 24.3933 215.452 24.3933C216.747 24.3933 217.791 24.4653 218.583 24.6093C219.375 24.6812 220.167 24.8612 220.958 25.1491L220.85 37.0263C219.483 36.4504 218.295 36.0905 217.287 35.9465C216.351 35.8026 215.164 35.7306 213.724 35.7306C210.629 35.7306 208.001 36.3784 205.842 37.6741C203.754 38.9698 202.171 40.7694 201.091 43.0728C200.083 45.3763 199.579 48.0037 199.579 50.955V80H185.975ZM228.471 80V25.4731H241.968V80H228.471ZM227.715 15.2155V2.04266H242.724V15.2155H227.715Z" fill="#79CABE"/>
<path d="M284.266 81.0797C278.147 81.0797 272.497 80.3239 267.314 78.8123C262.203 77.2287 257.812 75.0692 254.141 72.3338L258.46 61.4284C260.907 63.156 263.463 64.6317 266.126 65.8554C268.789 67.0071 271.633 67.9069 274.656 68.5547C277.679 69.1306 280.883 69.4185 284.266 69.4185C289.952 69.4185 294.055 68.4828 296.575 66.6112C299.094 64.7397 300.354 62.2922 300.354 59.269C300.354 56.6056 299.49 54.5901 297.763 53.2224C296.035 51.7828 292.94 50.595 288.477 49.6593L276.276 47.1759C269.293 45.7362 264.075 43.3248 260.619 39.9416C257.164 36.5584 255.437 32.0235 255.437 26.3368C255.437 21.586 256.696 17.447 259.216 13.9198C261.735 10.3927 265.262 7.65732 269.797 5.71378C274.332 3.77025 279.623 2.79848 285.669 2.79848C291.068 2.79848 296.071 3.59029 300.678 5.17391C305.285 6.68555 309.136 8.88102 312.231 11.7603L307.912 22.1259C304.817 19.5345 301.434 17.6269 297.763 16.4032C294.091 15.1075 289.988 14.4597 285.454 14.4597C280.343 14.4597 276.348 15.4674 273.468 17.483C270.661 19.4265 269.257 22.1259 269.257 25.581C269.257 28.2444 270.121 30.3679 271.849 31.9515C273.648 33.5351 276.672 34.7588 280.919 35.6226L293.012 37.9981C300.21 39.4377 305.537 41.8131 308.992 45.1243C312.447 48.3636 314.175 52.7545 314.175 58.2972C314.175 62.8321 312.951 66.8272 310.504 70.2823C308.056 73.6655 304.601 76.3289 300.138 78.2724C295.675 80.144 290.384 81.0797 284.266 81.0797ZM347.272 81.0797C342.521 81.0797 338.346 79.964 334.747 77.7325C331.148 75.4291 328.341 72.1539 326.325 67.9069C324.31 63.6599 323.302 58.5851 323.302 52.6825C323.302 46.78 324.31 41.7412 326.325 37.5662C328.341 33.3192 331.148 30.0799 334.747 27.8485C338.346 25.545 342.521 24.3933 347.272 24.3933C351.879 24.3933 355.91 25.545 359.365 27.8485C362.892 30.0799 365.232 33.1032 366.384 36.9183H365.196L366.384 25.4731H379.34C379.124 27.7045 378.909 29.972 378.693 32.2754C378.549 34.5789 378.477 36.8463 378.477 39.0778V80H365.088L364.98 68.7707H366.276C365.124 72.5138 362.784 75.5011 359.257 77.7325C355.73 79.964 351.735 81.0797 347.272 81.0797ZM351.051 70.7142C355.298 70.7142 358.717 69.2386 361.309 66.2873C363.9 63.264 365.196 58.7291 365.196 52.6825C365.196 46.636 363.9 42.1371 361.309 39.1858C358.717 36.2345 355.298 34.7588 351.051 34.7588C346.804 34.7588 343.385 36.2345 340.794 39.1858C338.202 42.1371 336.907 46.636 336.907 52.6825C336.907 58.7291 338.166 63.264 340.686 66.2873C343.277 69.2386 346.732 70.7142 351.051 70.7142ZM393.174 80V0.531018H406.67V80H393.174ZM440.978 81.0797C434.284 81.0797 429.281 79.2442 425.97 75.5731C422.659 71.9019 421.003 66.2873 421.003 58.7291V25.4731H434.5V58.6211C434.5 62.6522 435.328 65.6394 436.983 67.583C438.639 69.4545 441.158 70.3903 444.542 70.3903C448.357 70.3903 451.452 69.0946 453.827 66.5032C456.275 63.9119 457.499 60.4927 457.499 56.2457V25.4731H470.995V80H457.822V68.8787H459.334C457.75 72.7657 455.339 75.789 452.1 77.9485C448.933 80.036 445.225 81.0797 440.978 81.0797ZM506.811 81.0797C502.06 81.0797 497.849 79.964 494.178 77.7325C490.579 75.4291 487.771 72.1539 485.756 67.9069C483.74 63.6599 482.732 58.5851 482.732 52.6825C482.732 46.78 483.74 41.7412 485.756 37.5662C487.771 33.3192 490.579 30.0799 494.178 27.8485C497.849 25.545 502.06 24.3933 506.811 24.3933C511.346 24.3933 515.341 25.509 518.796 27.7405C522.323 29.9 524.662 32.8513 525.814 36.5944H524.41V0.531018H537.907V80H524.626V68.4468H525.922C524.77 72.3338 522.431 75.4291 518.904 77.7325C515.449 79.964 511.418 81.0797 506.811 81.0797ZM510.59 70.7142C514.837 70.7142 518.256 69.2386 520.847 66.2873C523.439 63.264 524.734 58.7291 524.734 52.6825C524.734 46.636 523.439 42.1371 520.847 39.1858C518.256 36.2345 514.837 34.7588 510.59 34.7588C506.343 34.7588 502.888 36.2345 500.224 39.1858C497.633 42.1371 496.337 46.636 496.337 52.6825C496.337 58.7291 497.633 63.264 500.224 66.2873C502.888 69.2386 506.343 70.7142 510.59 70.7142Z" fill="black"/>
</svg>
